<mxfile host="app.diagrams.net" modified="2024-06-03T21:19:03.751Z" agent="Mozilla/5.0 (X11; Linux x86_64; rv:126.0) Gecko/20100101 Firefox/126.0" etag="R-qNQ0A2eESy3_dDwqga" version="24.4.13" type="device">
  <diagram name="Page-1" id="Wgza6gukF8t74OScEbx7">
    <mxGraphModel dx="1004" dy="554" grid="1" gridSize="10" guides="1" tooltips="1" connect="1" arrows="1" fold="1" page="1" pageScale="1" pageWidth="850" pageHeight="1100" math="0" shadow="0">
      <root>
        <mxCell id="0" />
        <mxCell id="1" parent="0" />
        <mxCell id="I97B-m25CLJylAk6B5b3-2" value="0" style="rounded=0;whiteSpace=wrap;html=1;fillColor=none;fontFamily=New Computer Modern;fontStyle=1" vertex="1" parent="1">
          <mxGeometry x="240" y="180" width="80" height="20" as="geometry" />
        </mxCell>
        <mxCell id="I97B-m25CLJylAk6B5b3-3" value="0" style="rounded=0;whiteSpace=wrap;html=1;fillColor=none;fontFamily=New Computer Modern;" vertex="1" parent="1">
          <mxGeometry x="240" y="200" width="80" height="20" as="geometry" />
        </mxCell>
        <mxCell id="I97B-m25CLJylAk6B5b3-4" value="13" style="rounded=0;whiteSpace=wrap;html=1;fillColor=none;fontFamily=New Computer Modern;fontStyle=1" vertex="1" parent="1">
          <mxGeometry x="240" y="220" width="80" height="20" as="geometry" />
        </mxCell>
        <mxCell id="I97B-m25CLJylAk6B5b3-5" value="0" style="rounded=0;whiteSpace=wrap;html=1;fillColor=none;fontFamily=New Computer Modern;" vertex="1" parent="1">
          <mxGeometry x="240" y="240" width="80" height="20" as="geometry" />
        </mxCell>
        <mxCell id="I97B-m25CLJylAk6B5b3-6" value="0" style="rounded=0;whiteSpace=wrap;html=1;fillColor=none;fontFamily=New Computer Modern;fontStyle=1" vertex="1" parent="1">
          <mxGeometry x="240" y="260" width="80" height="20" as="geometry" />
        </mxCell>
        <mxCell id="I97B-m25CLJylAk6B5b3-7" value="0" style="rounded=0;whiteSpace=wrap;html=1;fillColor=none;fontFamily=New Computer Modern;" vertex="1" parent="1">
          <mxGeometry x="240" y="280" width="80" height="20" as="geometry" />
        </mxCell>
        <mxCell id="I97B-m25CLJylAk6B5b3-8" value="0" style="rounded=0;whiteSpace=wrap;html=1;fillColor=none;fontFamily=New Computer Modern;fontStyle=1" vertex="1" parent="1">
          <mxGeometry x="240" y="300" width="80" height="20" as="geometry" />
        </mxCell>
        <mxCell id="I97B-m25CLJylAk6B5b3-9" value="0" style="rounded=0;whiteSpace=wrap;html=1;fillColor=none;fontFamily=New Computer Modern;" vertex="1" parent="1">
          <mxGeometry x="240" y="320" width="80" height="20" as="geometry" />
        </mxCell>
        <mxCell id="I97B-m25CLJylAk6B5b3-10" value="0" style="rounded=0;whiteSpace=wrap;html=1;fillColor=none;fontFamily=New Computer Modern;fontStyle=1" vertex="1" parent="1">
          <mxGeometry x="240" y="360" width="80" height="20" as="geometry" />
        </mxCell>
        <mxCell id="I97B-m25CLJylAk6B5b3-11" value="0" style="rounded=0;whiteSpace=wrap;html=1;fillColor=none;fontFamily=New Computer Modern;" vertex="1" parent="1">
          <mxGeometry x="240" y="380" width="80" height="20" as="geometry" />
        </mxCell>
        <mxCell id="I97B-m25CLJylAk6B5b3-12" value="" style="endArrow=none;dashed=1;html=1;rounded=0;" edge="1" parent="1">
          <mxGeometry width="50" height="50" relative="1" as="geometry">
            <mxPoint x="279.5" y="360" as="sourcePoint" />
            <mxPoint x="280" y="340" as="targetPoint" />
          </mxGeometry>
        </mxCell>
        <mxCell id="I97B-m25CLJylAk6B5b3-43" value="0" style="rounded=0;whiteSpace=wrap;html=1;fillColor=none;fontFamily=New Computer Modern;fontStyle=1" vertex="1" parent="1">
          <mxGeometry x="360" y="180" width="80" height="20" as="geometry" />
        </mxCell>
        <mxCell id="I97B-m25CLJylAk6B5b3-44" value="0" style="rounded=0;whiteSpace=wrap;html=1;fillColor=none;fontFamily=New Computer Modern;" vertex="1" parent="1">
          <mxGeometry x="360" y="200" width="80" height="20" as="geometry" />
        </mxCell>
        <mxCell id="I97B-m25CLJylAk6B5b3-45" value="13" style="rounded=0;whiteSpace=wrap;html=1;fillColor=none;fontFamily=New Computer Modern;fontStyle=1" vertex="1" parent="1">
          <mxGeometry x="360" y="220" width="80" height="20" as="geometry" />
        </mxCell>
        <mxCell id="I97B-m25CLJylAk6B5b3-46" value="31" style="rounded=0;whiteSpace=wrap;html=1;fillColor=none;fontFamily=New Computer Modern;" vertex="1" parent="1">
          <mxGeometry x="360" y="240" width="80" height="20" as="geometry" />
        </mxCell>
        <mxCell id="I97B-m25CLJylAk6B5b3-47" value="13" style="rounded=0;whiteSpace=wrap;html=1;fillColor=none;fontFamily=New Computer Modern;fontStyle=1" vertex="1" parent="1">
          <mxGeometry x="360" y="260" width="80" height="20" as="geometry" />
        </mxCell>
        <mxCell id="I97B-m25CLJylAk6B5b3-48" value="30" style="rounded=0;whiteSpace=wrap;html=1;fillColor=none;fontFamily=New Computer Modern;" vertex="1" parent="1">
          <mxGeometry x="360" y="280" width="80" height="20" as="geometry" />
        </mxCell>
        <mxCell id="I97B-m25CLJylAk6B5b3-49" value="13" style="rounded=0;whiteSpace=wrap;html=1;fillColor=none;fontFamily=New Computer Modern;fontStyle=1" vertex="1" parent="1">
          <mxGeometry x="360" y="300" width="80" height="20" as="geometry" />
        </mxCell>
        <mxCell id="I97B-m25CLJylAk6B5b3-50" value="29" style="rounded=0;whiteSpace=wrap;html=1;fillColor=none;fontFamily=New Computer Modern;" vertex="1" parent="1">
          <mxGeometry x="360" y="320" width="80" height="20" as="geometry" />
        </mxCell>
        <mxCell id="I97B-m25CLJylAk6B5b3-51" value="13" style="rounded=0;whiteSpace=wrap;html=1;fillColor=none;fontFamily=New Computer Modern;fontStyle=1" vertex="1" parent="1">
          <mxGeometry x="360" y="360" width="80" height="20" as="geometry" />
        </mxCell>
        <mxCell id="I97B-m25CLJylAk6B5b3-52" value="1" style="rounded=0;whiteSpace=wrap;html=1;fillColor=none;fontFamily=New Computer Modern;" vertex="1" parent="1">
          <mxGeometry x="360" y="380" width="80" height="20" as="geometry" />
        </mxCell>
        <mxCell id="I97B-m25CLJylAk6B5b3-53" value="" style="endArrow=none;dashed=1;html=1;rounded=0;" edge="1" parent="1">
          <mxGeometry width="50" height="50" relative="1" as="geometry">
            <mxPoint x="399.5" y="360" as="sourcePoint" />
            <mxPoint x="400" y="340" as="targetPoint" />
          </mxGeometry>
        </mxCell>
        <mxCell id="I97B-m25CLJylAk6B5b3-54" value="0" style="rounded=0;whiteSpace=wrap;html=1;fillColor=none;fontFamily=New Computer Modern;fontStyle=1" vertex="1" parent="1">
          <mxGeometry x="240" y="400" width="80" height="20" as="geometry" />
        </mxCell>
        <mxCell id="I97B-m25CLJylAk6B5b3-55" value="0" style="rounded=0;whiteSpace=wrap;html=1;fillColor=none;fontFamily=New Computer Modern;" vertex="1" parent="1">
          <mxGeometry x="240" y="420" width="80" height="20" as="geometry" />
        </mxCell>
        <mxCell id="I97B-m25CLJylAk6B5b3-56" value="13" style="rounded=0;whiteSpace=wrap;html=1;fillColor=none;fontFamily=New Computer Modern;fontStyle=1" vertex="1" parent="1">
          <mxGeometry x="360" y="400" width="80" height="20" as="geometry" />
        </mxCell>
        <mxCell id="I97B-m25CLJylAk6B5b3-57" value="0" style="rounded=0;whiteSpace=wrap;html=1;fillColor=none;fontFamily=New Computer Modern;" vertex="1" parent="1">
          <mxGeometry x="360" y="420" width="80" height="20" as="geometry" />
        </mxCell>
        <mxCell id="I97B-m25CLJylAk6B5b3-58" value="0" style="rounded=0;whiteSpace=wrap;html=1;fillColor=none;fontFamily=New Computer Modern;fontStyle=1" vertex="1" parent="1">
          <mxGeometry x="240" y="440" width="80" height="20" as="geometry" />
        </mxCell>
        <mxCell id="I97B-m25CLJylAk6B5b3-59" value="0" style="rounded=0;whiteSpace=wrap;html=1;fillColor=none;fontFamily=New Computer Modern;" vertex="1" parent="1">
          <mxGeometry x="240" y="460" width="80" height="20" as="geometry" />
        </mxCell>
        <mxCell id="I97B-m25CLJylAk6B5b3-60" value="13" style="rounded=0;whiteSpace=wrap;html=1;fillColor=none;fontFamily=New Computer Modern;fontStyle=1" vertex="1" parent="1">
          <mxGeometry x="360" y="440" width="80" height="20" as="geometry" />
        </mxCell>
        <mxCell id="I97B-m25CLJylAk6B5b3-61" value="0" style="rounded=0;whiteSpace=wrap;html=1;fillColor=none;fontFamily=New Computer Modern;" vertex="1" parent="1">
          <mxGeometry x="360" y="460" width="80" height="20" as="geometry" />
        </mxCell>
        <mxCell id="I97B-m25CLJylAk6B5b3-62" value="7" style="rounded=0;whiteSpace=wrap;html=1;fillColor=none;fontFamily=New Computer Modern;fontStyle=1" vertex="1" parent="1">
          <mxGeometry x="240" y="480" width="80" height="20" as="geometry" />
        </mxCell>
        <mxCell id="I97B-m25CLJylAk6B5b3-63" value="0" style="rounded=0;whiteSpace=wrap;html=1;fillColor=none;fontFamily=New Computer Modern;" vertex="1" parent="1">
          <mxGeometry x="240" y="500" width="80" height="20" as="geometry" />
        </mxCell>
        <mxCell id="I97B-m25CLJylAk6B5b3-64" value="7" style="rounded=0;whiteSpace=wrap;html=1;fillColor=none;fontFamily=New Computer Modern;fontStyle=1" vertex="1" parent="1">
          <mxGeometry x="360" y="480" width="80" height="20" as="geometry" />
        </mxCell>
        <mxCell id="I97B-m25CLJylAk6B5b3-65" value="31" style="rounded=0;whiteSpace=wrap;html=1;fillColor=none;fontFamily=New Computer Modern;" vertex="1" parent="1">
          <mxGeometry x="360" y="500" width="80" height="20" as="geometry" />
        </mxCell>
        <mxCell id="I97B-m25CLJylAk6B5b3-66" value="111" style="rounded=0;whiteSpace=wrap;html=1;fillColor=none;fontFamily=New Computer Modern;fontStyle=1" vertex="1" parent="1">
          <mxGeometry x="240" y="520" width="80" height="20" as="geometry" />
        </mxCell>
        <mxCell id="I97B-m25CLJylAk6B5b3-67" value="0" style="rounded=0;whiteSpace=wrap;html=1;fillColor=none;fontFamily=New Computer Modern;" vertex="1" parent="1">
          <mxGeometry x="240" y="540" width="80" height="20" as="geometry" />
        </mxCell>
        <mxCell id="I97B-m25CLJylAk6B5b3-68" value="111" style="rounded=0;whiteSpace=wrap;html=1;fillColor=none;fontFamily=New Computer Modern;fontStyle=1" vertex="1" parent="1">
          <mxGeometry x="360" y="520" width="80" height="20" as="geometry" />
        </mxCell>
        <mxCell id="I97B-m25CLJylAk6B5b3-69" value="31" style="rounded=0;whiteSpace=wrap;html=1;fillColor=none;fontFamily=New Computer Modern;" vertex="1" parent="1">
          <mxGeometry x="360" y="540" width="80" height="20" as="geometry" />
        </mxCell>
        <mxCell id="I97B-m25CLJylAk6B5b3-70" value="0" style="rounded=0;whiteSpace=wrap;html=1;fillColor=none;fontFamily=New Computer Modern;fontStyle=1" vertex="1" parent="1">
          <mxGeometry x="240" y="560" width="80" height="20" as="geometry" />
        </mxCell>
        <mxCell id="I97B-m25CLJylAk6B5b3-71" value="0" style="rounded=0;whiteSpace=wrap;html=1;fillColor=none;fontFamily=New Computer Modern;" vertex="1" parent="1">
          <mxGeometry x="240" y="580" width="80" height="20" as="geometry" />
        </mxCell>
        <mxCell id="I97B-m25CLJylAk6B5b3-72" value="111" style="rounded=0;whiteSpace=wrap;html=1;fillColor=none;fontFamily=New Computer Modern;fontStyle=1" vertex="1" parent="1">
          <mxGeometry x="360" y="560" width="80" height="20" as="geometry" />
        </mxCell>
        <mxCell id="I97B-m25CLJylAk6B5b3-73" value="30" style="rounded=0;whiteSpace=wrap;html=1;fillColor=none;fontFamily=New Computer Modern;" vertex="1" parent="1">
          <mxGeometry x="360" y="580" width="80" height="20" as="geometry" />
        </mxCell>
        <mxCell id="I97B-m25CLJylAk6B5b3-79" value="ADD = 157" style="endArrow=open;html=1;rounded=0;endFill=0;" edge="1" parent="1">
          <mxGeometry width="50" height="50" relative="1" as="geometry">
            <mxPoint x="140" y="189.58" as="sourcePoint" />
            <mxPoint x="230" y="189.58" as="targetPoint" />
          </mxGeometry>
        </mxCell>
        <mxCell id="I97B-m25CLJylAk6B5b3-80" value="ADD = 230" style="endArrow=open;html=1;rounded=0;endFill=0;" edge="1" parent="1">
          <mxGeometry width="50" height="50" relative="1" as="geometry">
            <mxPoint x="140" y="589.5799999999999" as="sourcePoint" />
            <mxPoint x="230" y="589.5799999999999" as="targetPoint" />
          </mxGeometry>
        </mxCell>
        <mxCell id="I97B-m25CLJylAk6B5b3-82" value="" style="shape=curlyBracket;whiteSpace=wrap;html=1;rounded=1;flipH=1;labelPosition=right;verticalLabelPosition=middle;align=left;verticalAlign=middle;rotation=-90;strokeColor=#5C8A99;strokeWidth=2;" vertex="1" parent="1">
          <mxGeometry x="270" y="110" width="20" height="90" as="geometry" />
        </mxCell>
        <mxCell id="I97B-m25CLJylAk6B5b3-83" value="" style="shape=curlyBracket;whiteSpace=wrap;html=1;rounded=1;flipH=1;labelPosition=right;verticalLabelPosition=middle;align=left;verticalAlign=middle;rotation=-90;strokeColor=#5C8A99;strokeWidth=2;" vertex="1" parent="1">
          <mxGeometry x="390" y="110" width="20" height="90" as="geometry" />
        </mxCell>
        <mxCell id="I97B-m25CLJylAk6B5b3-84" value="&lt;div&gt;&lt;font face=&quot;New Computer Modern&quot;&gt;RAM&lt;/font&gt;&lt;/div&gt;&lt;div&gt;&lt;font face=&quot;dxdMlEZda7upcUsz9ILX&quot;&gt;(prima)&lt;br&gt;&lt;/font&gt;&lt;/div&gt;" style="text;html=1;align=center;verticalAlign=middle;resizable=0;points=[];autosize=1;strokeColor=none;fillColor=none;" vertex="1" parent="1">
          <mxGeometry x="245" y="100" width="70" height="50" as="geometry" />
        </mxCell>
        <mxCell id="I97B-m25CLJylAk6B5b3-85" value="&lt;div&gt;&lt;font face=&quot;New Computer Modern&quot;&gt;RAM&lt;/font&gt;&lt;/div&gt;&lt;div&gt;&lt;font face=&quot;dxdMlEZda7upcUsz9ILX&quot;&gt;(dopo)&lt;br&gt;&lt;/font&gt;&lt;/div&gt;" style="text;html=1;align=center;verticalAlign=middle;resizable=0;points=[];autosize=1;strokeColor=none;fillColor=none;" vertex="1" parent="1">
          <mxGeometry x="370" y="100" width="60" height="50" as="geometry" />
        </mxCell>
        <mxCell id="I97B-m25CLJylAk6B5b3-86" value="&lt;font face=&quot;New Computer Modern&quot;&gt;2*K&lt;/font&gt;" style="shape=curlyBracket;whiteSpace=wrap;html=1;rounded=1;flipH=1;labelPosition=right;verticalLabelPosition=middle;align=left;verticalAlign=middle;strokeColor=#5C8A99;strokeWidth=2;" vertex="1" parent="1">
          <mxGeometry x="470" y="180" width="20" height="420" as="geometry" />
        </mxCell>
      </root>
    </mxGraphModel>
  </diagram>
</mxfile>
